<svg width="500" height="500" viewBox="0 0 500 500" fill="none" xmlns="http://www.w3.org/2000/svg">
<path d="M0 250C0 183.696 26.3392 120.107 73.2233 73.2233C120.107 26.3392 183.696 0 250 0C316.304 0 379.893 26.3392 426.777 73.2233C473.661 120.107 500 183.696 500 250C500 316.304 473.661 379.893 426.777 426.777C379.893 473.661 316.304 500 250 500C183.696 500 120.107 473.661 73.2233 426.777C26.3392 379.893 0 316.304 0 250V250ZM218.75 171.875C218.75 167.731 217.104 163.757 214.174 160.826C211.243 157.896 207.269 156.25 203.125 156.25C198.981 156.25 195.007 157.896 192.076 160.826C189.146 163.757 187.5 167.731 187.5 171.875V328.125C187.5 332.269 189.146 336.243 192.076 339.174C195.007 342.104 198.981 343.75 203.125 343.75C207.269 343.75 211.243 342.104 214.174 339.174C217.104 336.243 218.75 332.269 218.75 328.125V171.875ZM125 187.5C120.856 187.5 116.882 189.146 113.951 192.076C111.021 195.007 109.375 198.981 109.375 203.125V265.625C109.375 269.769 111.021 273.743 113.951 276.674C116.882 279.604 120.856 281.25 125 281.25C129.144 281.25 133.118 279.604 136.049 276.674C138.979 273.743 140.625 269.769 140.625 265.625V203.125C140.625 198.981 138.979 195.007 136.049 192.076C133.118 189.146 129.144 187.5 125 187.5ZM281.25 187.5C277.106 187.5 273.132 189.146 270.201 192.076C267.271 195.007 265.625 198.981 265.625 203.125V265.625C265.625 269.769 267.271 273.743 270.201 276.674C273.132 279.604 277.106 281.25 281.25 281.25C285.394 281.25 289.368 279.604 292.299 276.674C295.229 273.743 296.875 269.769 296.875 265.625V203.125C296.875 198.981 295.229 195.007 292.299 192.076C289.368 189.146 285.394 187.5 281.25 187.5ZM359.375 156.25C355.231 156.25 351.257 157.896 348.326 160.826C345.396 163.757 343.75 167.731 343.75 171.875V328.125C343.75 332.269 345.396 336.243 348.326 339.174C351.257 342.104 355.231 343.75 359.375 343.75C363.519 343.75 367.493 342.104 370.424 339.174C373.354 336.243 375 332.269 375 328.125V171.875C375 167.731 373.354 163.757 370.424 160.826C367.493 157.896 363.519 156.25 359.375 156.25Z" fill="black"/>
</svg>
