<svg width="500" height="500" viewBox="0 0 500 500" fill="none" xmlns="http://www.w3.org/2000/svg">
<path d="M218.75 171.875C218.75 167.731 217.104 163.757 214.174 160.826C211.243 157.896 207.269 156.25 203.125 156.25C198.981 156.25 195.007 157.896 192.076 160.826C189.146 163.757 187.5 167.731 187.5 171.875V328.125C187.5 332.269 189.146 336.243 192.076 339.174C195.007 342.104 198.981 343.75 203.125 343.75C207.269 343.75 211.243 342.104 214.174 339.174C217.104 336.243 218.75 332.269 218.75 328.125V171.875ZM125 187.5C129.144 187.5 133.118 189.146 136.049 192.076C138.979 195.007 140.625 198.981 140.625 203.125V265.625C140.625 269.769 138.979 273.743 136.049 276.674C133.118 279.604 129.144 281.25 125 281.25C120.856 281.25 116.882 279.604 113.951 276.674C111.021 273.743 109.375 269.769 109.375 265.625V203.125C109.375 198.981 111.021 195.007 113.951 192.076C116.882 189.146 120.856 187.5 125 187.5V187.5ZM281.25 187.5C285.394 187.5 289.368 189.146 292.299 192.076C295.229 195.007 296.875 198.981 296.875 203.125V265.625C296.875 269.769 295.229 273.743 292.299 276.674C289.368 279.604 285.394 281.25 281.25 281.25C277.106 281.25 273.132 279.604 270.201 276.674C267.271 273.743 265.625 269.769 265.625 265.625V203.125C265.625 198.981 267.271 195.007 270.201 192.076C273.132 189.146 277.106 187.5 281.25 187.5ZM359.375 156.25C363.519 156.25 367.493 157.896 370.424 160.826C373.354 163.757 375 167.731 375 171.875V328.125C375 332.269 373.354 336.243 370.424 339.174C367.493 342.104 363.519 343.75 359.375 343.75C355.231 343.75 351.257 342.104 348.326 339.174C345.396 336.243 343.75 332.269 343.75 328.125V171.875C343.75 167.731 345.396 163.757 348.326 160.826C351.257 157.896 355.231 156.25 359.375 156.25ZM250 0C183.696 0 120.107 26.3392 73.2233 73.2233C26.3392 120.107 0 183.696 0 250C0 316.304 26.3392 379.893 73.2233 426.777C120.107 473.661 183.696 500 250 500C316.304 500 379.893 473.661 426.777 426.777C473.661 379.893 500 316.304 500 250C500 183.696 473.661 120.107 426.777 73.2233C379.893 26.3392 316.304 0 250 0V0ZM31.25 250C31.25 221.273 36.9081 192.828 47.9014 166.288C58.8946 139.748 75.0076 115.633 95.3204 95.3204C115.633 75.0076 139.748 58.8946 166.288 47.9013C192.828 36.9081 221.273 31.25 250 31.25C278.727 31.25 307.172 36.9081 333.712 47.9013C360.252 58.8946 384.367 75.0076 404.68 95.3204C424.992 115.633 441.105 139.748 452.099 166.288C463.092 192.828 468.75 221.273 468.75 250C468.75 308.016 445.703 363.656 404.68 404.68C363.656 445.703 308.016 468.75 250 468.75C191.984 468.75 136.344 445.703 95.3204 404.68C54.2968 363.656 31.25 308.016 31.25 250Z" fill="black"/>
</svg>
